<?xml version="1.0" encoding="UTF-8" standalone="no"?><!DOCTYPE svg PUBLIC "-//W3C//DTD SVG 1.1//EN" "http://www.w3.org/Graphics/SVG/1.1/DTD/svg11.dtd"><svg width="100%" height="100%" viewBox="0 0 800 500" version="1.1" xmlns="http://www.w3.org/2000/svg" xmlns:xlink="http://www.w3.org/1999/xlink" xml:space="preserve" xmlns:serif="http://www.serif.com/" style="fill-rule:evenodd;clip-rule:evenodd;stroke-linejoin:round;stroke-miterlimit:2;"><g id="OBJECTS"><g><path d="M508.988,263.966l127.396,-38.188l124.469,75.74l-72.953,81.202l-178.912,-76.296l-0,-42.458Z" style="fill:#c5d6f1;fill-rule:nonzero;"/><path d="M270.845,326.411l244.384,-84.344l201.038,75.739l-61.498,90.249l-616.942,88.967l233.018,-170.611Z" style="fill:#b1bbcc;fill-rule:nonzero;"/><path d="M450.98,366.872l270.525,-112.57l97.41,59.306l-0.004,103.185l-235.773,-27.124l-132.158,-22.797Z" style="fill:#94afdb;fill-rule:nonzero;"/><path d="M473.049,296.654l5.701,0l-9.146,-23.279l2.329,-0.588l-5.87,-20.302l-0.308,-1.067l-0.309,1.067l-5.87,20.302l2.329,0.588l-9.146,23.279l5.701,0l-13.777,41.196l42.144,0l-13.778,-41.196Z" style="fill:#586985;fill-rule:nonzero;"/><path d="M751.812,297.67l5.701,0l-9.145,-23.094l2.328,-0.583l-5.869,-20.14l-0.309,-1.059l-0.31,1.059l-5.869,20.14l2.329,0.583l-9.146,23.094l5.701,0l-13.777,40.868l42.143,0l-13.777,-40.868Z" style="fill:#586985;fill-rule:nonzero;"/><path d="M538.097,266.492l5.088,-0l-8.162,-20.612l2.078,-0.52l-5.239,-17.976l-0.275,-0.945l-0.276,0.945l-5.238,17.976l2.078,0.52l-8.163,20.612l5.088,-0l-12.296,36.475l37.614,-0l-12.297,-36.475Z" style="fill:#586985;fill-rule:nonzero;"/><path d="M608.037,295.926l3.796,0l-6.089,-15.375l1.55,-0.389l-3.907,-13.409l-0.206,-0.705l-0.206,0.705l-3.908,13.409l1.551,0.389l-6.089,15.375l3.795,0l-9.173,27.208l28.059,0l-9.173,-27.208Z" style="fill:#586985;fill-rule:nonzero;"/><path d="M354.894,325.693l265.367,57.859l179.713,-67.304l0,183.917l-794.073,-0.467l348.993,-174.005Z" style="fill:#879ab9;fill-rule:nonzero;"/><path d="M318.852,381.384l10.587,0l-16.985,-42.887l4.326,-1.084l-10.901,-37.4l-0.574,-1.967l-0.572,1.967l-10.901,37.4l4.324,1.084l-16.985,42.887l10.589,0l-25.586,75.894l78.264,-0l-25.586,-75.894Z" style="fill:#385d99;fill-rule:nonzero;"/><path d="M425.561,400.554l14.059,0l-22.554,-56.946l5.742,-1.439l-14.473,-49.665l-0.762,-2.612l-0.761,2.612l-14.473,49.665l5.742,1.439l-22.553,56.946l14.058,0l-33.974,100.777l103.923,-0l-33.974,-100.777Z" style="fill:#385d99;fill-rule:nonzero;"/><path d="M797.236,384.107l16.546,-0l-26.542,-67.02l6.758,-1.693l-17.034,-58.448l-0.896,-3.075l-0.896,3.075l-17.035,58.448l6.76,1.693l-26.542,67.02l16.544,-0l-39.984,118.601l122.305,-0l-39.984,-118.601Z" style="fill:#385d99;fill-rule:nonzero;"/><path d="M742.786,159.649c0,11.021 -8.934,19.954 -19.954,19.954c-11.021,-0 -19.954,-8.933 -19.954,-19.954c0,-11.02 8.933,-19.954 19.954,-19.954c11.02,-0 19.954,8.934 19.954,19.954" style="fill:#0b5adb;fill-opacity:0.18;fill-rule:nonzero;"/><path d="M547.997,185.924c0,0.733 -0.594,1.328 -1.328,1.328c-0.733,0 -1.327,-0.595 -1.327,-1.328c0,-0.733 0.594,-1.328 1.327,-1.328c0.734,0 1.328,0.595 1.328,1.328" style="fill:#0b5adb;fill-opacity:0.12;fill-rule:nonzero;"/><path d="M713.294,210.483c-0,0.733 -0.594,1.328 -1.327,1.328c-0.734,0 -1.327,-0.595 -1.327,-1.328c-0,-0.733 0.593,-1.328 1.327,-1.328c0.733,0 1.327,0.595 1.327,1.328" style="fill:#0b5adb;fill-opacity:0.12;fill-rule:nonzero;"/><path d="M542.36,226.605c-0,0.733 -0.594,1.328 -1.327,1.328c-0.734,0 -1.328,-0.595 -1.328,-1.328c-0,-0.733 0.594,-1.328 1.328,-1.328c0.733,0 1.327,0.595 1.327,1.328" style="fill:#0b5adb;fill-opacity:0.12;fill-rule:nonzero;"/><path d="M470.792,190.902c0,0.733 -0.594,1.328 -1.328,1.328c-0.733,0 -1.327,-0.595 -1.327,-1.328c0,-0.733 0.594,-1.328 1.327,-1.328c0.734,0 1.328,0.595 1.328,1.328" style="fill:#0b5adb;fill-opacity:0.12;fill-rule:nonzero;"/><path d="M582.724,136.806c0,0.733 -0.595,1.328 -1.328,1.328c-0.734,0 -1.327,-0.595 -1.327,-1.328c0,-0.733 0.593,-1.328 1.327,-1.328c0.733,0 1.328,0.595 1.328,1.328" style="fill:#0b5adb;fill-opacity:0.12;fill-rule:nonzero;"/><path d="M674.464,180.282c0,0.733 -0.595,1.328 -1.328,1.328c-0.734,0 -1.327,-0.595 -1.327,-1.328c0,-0.733 0.593,-1.327 1.327,-1.327c0.733,0 1.328,0.594 1.328,1.327" style="fill:#0b5adb;fill-opacity:0.12;fill-rule:nonzero;"/><path d="M656.816,252.794c0,0.733 -0.595,1.328 -1.327,1.328c-0.734,0 -1.328,-0.595 -1.328,-1.328c0,-0.733 0.594,-1.328 1.328,-1.328c0.732,0 1.327,0.595 1.327,1.328" style="fill:#0b5adb;fill-opacity:0.12;fill-rule:nonzero;"/><path d="M436.506,235.587c0,0.733 -0.595,1.328 -1.328,1.328c-0.733,-0 -1.327,-0.595 -1.327,-1.328c0,-0.733 0.594,-1.328 1.327,-1.328c0.733,-0 1.328,0.595 1.328,1.328" style="fill:#0b5adb;fill-opacity:0.12;fill-rule:nonzero;"/><path d="M509.734,173.313c0,0.733 -0.594,1.328 -1.328,1.328c-0.733,0 -1.327,-0.595 -1.327,-1.328c0,-0.733 0.594,-1.328 1.327,-1.328c0.734,0 1.328,0.595 1.328,1.328" style="fill:#0b5adb;fill-opacity:0.12;fill-rule:nonzero;"/></g></g></svg>