<?xml version="1.0" encoding="UTF-8" standalone="no"?><!DOCTYPE svg PUBLIC "-//W3C//DTD SVG 1.1//EN" "http://www.w3.org/Graphics/SVG/1.1/DTD/svg11.dtd"><svg width="100%" height="100%" viewBox="0 0 200 400" version="1.1" xmlns="http://www.w3.org/2000/svg" xmlns:xlink="http://www.w3.org/1999/xlink" xml:space="preserve" xmlns:serif="http://www.serif.com/" style="fill-rule:evenodd;clip-rule:evenodd;stroke-linejoin:round;stroke-miterlimit:2;"><g id="OBJECTS"><g><path d="M111.691,360.051l0.328,6.369l16.923,-0.873l-0.253,-6.864l-16.998,1.368Z" style="fill:#efefef;fill-rule:nonzero;"/><path d="M149.385,358.687l-0,6.378l14.805,-0l0.087,-6.868l-14.892,0.49Z" style="fill:#efefef;fill-rule:nonzero;"/><path d="M111.691,360.051l0.123,2.396l16.99,-0.632l-0.115,-3.132l-16.998,1.368Z" style="fill:#d1d1d1;fill-rule:nonzero;"/><path d="M164.276,358.196l-14.892,0.49l0,2.364l14.863,-0.553l0.029,-2.301Z" style="fill:#d1d1d1;fill-rule:nonzero;"/><path d="M113.648,245.842c0,-0 -7.663,46.979 -7.152,69.457c0.511,22.479 3.431,45.651 3.431,45.651l19.553,-1.206l0,-57.728l13.189,-31.1c0,-0 -3.477,31.356 -1.178,42.595c2.299,11.239 4.888,46.097 4.888,46.097l19.577,-0.917c0,-0 -3.009,-54.375 -2.753,-56.93c0.171,-1.712 3.167,-30.859 3.454,-47.712c0.14,-8.299 -0.614,-11.875 -0.614,-11.875l-52.395,3.668Z" style="fill:#d4e3ff;fill-rule:nonzero;"/><path d="M110,304.276c1.458,-4.999 6.75,-48.185 8.032,-58.741l-4.384,0.306c0,0 -7.663,46.979 -7.152,69.457c0.511,22.479 3.431,45.652 3.431,45.652l1.802,-0.111c-0.604,-9.405 -3.205,-51.504 -1.729,-56.563" style="fill:#9ba9e3;fill-rule:nonzero;"/><path d="M156.789,269.142c-8.117,1.774 -14.12,1.774 -14.12,1.774c-0,-0 -3.477,31.356 -1.178,42.595c2.299,11.239 4.889,46.097 4.889,46.097l3.782,-0.177l0.084,-0.004l-6.311,-73.73c2.11,-6.488 12.854,-16.555 12.854,-16.555" style="fill:#9ba9e3;fill-rule:nonzero;"/><path d="M142.831,138l-0.246,1.871l2.854,-0.546l-2.477,-1.539l-0.131,0.214Z" style="fill:#e09600;fill-rule:nonzero;"/><path d="M122.891,138.522c-2.425,1.507 -4.065,1.549 -4.065,1.549c-8.386,-12.578 -9.016,-29.769 -9.016,-29.769c0,0 10.968,-4.658 18.533,-3.014c7.567,1.645 12.61,19.957 12.61,19.957c0,0 1.536,10.088 2.522,12.061c0,0 -7.018,4.386 -18.53,3.619l-2.054,-4.403Z" style="fill:#ffcbc0;fill-rule:nonzero;"/><path d="M126.643,109.227c3.682,1.179 8.341,1.575 11.065,4.24c-2.214,-4.929 -5.451,-5.328 -9.365,-6.179c-7.565,-1.644 -18.532,3.014 -18.532,3.014c0,0 0.045,1.192 0.26,3.165c5.57,-1.956 11.075,-6 16.572,-4.24" style="fill:#ffb9ae;fill-rule:nonzero;"/><path d="M133.496,129.446c-0.311,-2.173 -2.161,-4.528 -3.166,-5.67l-0.481,0.152c0.168,1.012 0.392,2.925 0.346,5.777c-0.071,4.439 -7.303,8.817 -7.303,8.817l2.053,4.403c7.78,-6.398 8.981,-10.472 8.551,-13.479" style="fill:#ffb9ae;fill-rule:nonzero;"/><path d="M79.028,229.205c0,0 -5.859,3.082 -7.84,3.205c-1.981,0.124 -6.475,2.361 -4.989,7.809c1.485,5.447 7.304,5.57 10.275,4.952c2.971,-0.619 9.904,-7.181 9.904,-7.181l-7.35,-8.785Z" style="fill:#ffcbc0;fill-rule:nonzero;"/><path d="M80.085,223.757c-0,-0 -0.515,2.253 -0.883,3.355c-0.367,1.103 -1.378,2.481 -1.378,2.481l8.178,8.546l4.936,-2.002c-0,-0 -5.835,-12.98 -10.853,-12.38" style="fill:#2d2d60;fill-rule:nonzero;"/><path d="M114.888,150.984c0,0 1.69,-4.288 10.057,-8.059c0,0 9.098,0.598 18.53,-3.619c0,0 20.162,-1.931 24.276,14.987c3.635,14.94 0.851,75.698 0.15,89.701c-0.081,1.621 -1.419,2.888 -3.042,2.888l-49.962,0c-1.809,0 -3.219,-1.567 -3.03,-3.366l1.375,-13.032c0.185,-1.754 0.278,-3.516 0.278,-5.279l0,-7.869l1.368,-66.352Z" style="fill:#2d2d60;fill-rule:nonzero;"/><path d="M125.102,201.763c3.809,-25.535 13.934,-49.112 -1.923,-57.98c-6.834,3.534 -8.291,7.201 -8.291,7.201l-1.368,66.351l0,7.87c0,0.123 -0.009,0.246 -0.01,0.369c3.826,-3.12 9.524,-9.948 11.592,-23.811" style="fill:#251f3b;fill-rule:nonzero;"/><path d="M104.568,99.505c-0,-0 26.245,-10.217 33.078,-5.555c6.833,4.661 9.195,12.707 7.726,19.093c-1.469,6.385 -4.418,14.202 -4.418,14.202l-7.331,-4.113c-0,-0 1.788,-8.684 -0.319,-11.239c-2.108,-2.554 -4.79,0.256 -4.215,4.47l-3.065,0.639c-0,-0 -2.108,-8.365 -5.044,-8.429c-2.938,-0.064 -11.169,1.729 -11.169,1.729c-0,-0 -6.137,-1.09 -5.243,-10.797" style="fill:#2d2d60;fill-rule:nonzero;"/><path d="M124.109,101.571c8.171,-2.887 13.211,2.8 16.037,5.25c1.825,1.583 4.189,2.236 5.574,3.955c0.511,-5.93 -2.029,-12.702 -8.075,-16.826c-6.832,-4.662 -33.078,5.555 -33.078,5.555c-0.105,1.149 -0.106,2.167 -0.037,3.087c3.149,0.404 12.822,1.366 19.579,-1.021" style="fill:#251f3b;fill-rule:nonzero;"/><path d="M139.942,120.734l-1.131,0.258c0.012,0.029 0.024,0.059 0.035,0.089l1.096,-0.347Z" style="fill:#441009;fill-rule:nonzero;"/><path d="M129.848,123.929c-0.093,-0.563 -0.169,-0.855 -0.169,-0.855l-0.585,-2.631l-2.914,0.582l-0.419,2.049l-12.27,5.941c0.009,0.027 0.019,0.055 0.029,0.083c1.281,3.704 2.998,7.513 5.306,10.973c0,-0 1.64,-0.041 4.065,-1.549c0,-0 7.232,-4.378 7.304,-8.816c0.046,-2.853 -0.179,-4.765 -0.347,-5.777" style="fill:#251f3b;fill-rule:nonzero;"/><path d="M113.491,148.393l1.397,2.591l4.471,-4.033l-5.868,1.442Z" style="fill:#e09600;fill-rule:nonzero;"/><path d="M113.491,148.393c-0,-0 15.585,-3.224 18.809,13.231l9.339,-6.227c-0,-0 -6.043,-16.54 -17.586,-14.384c-0,-0 -6.912,1.377 -10.562,7.38" style="fill:#f6be04;fill-rule:nonzero;"/><path d="M149.329,150.2c-0,-0 -1.265,-8.669 -6.367,-12.415c-0,-0 3.16,-2.032 9.057,-0.815c1.104,0.227 2.067,0.884 2.724,1.8c1.317,1.838 3.472,5.321 4.294,9.398l-9.708,2.032Z" style="fill:#f6be04;fill-rule:nonzero;"/><path d="M119.359,198.673l13.659,14.882l0,14.355l-15.832,-20.477l2.173,-8.76Z" style="fill:#f7bc08;fill-rule:nonzero;"/><path d="M129.846,155.026c0,-0 10.955,-4.505 21.921,-6.058c10.965,-1.553 13.592,-1.303 13.592,-1.303c0,-0 6.842,4.358 7.439,9.334c0.597,4.976 1.194,39.805 1.194,39.805c0,-0 4.578,2.189 4.677,3.981c0.073,1.294 0.3,17.293 0.421,26.07c0.044,3.204 -2.412,5.89 -5.607,6.126c-11.561,0.855 -36.96,2.381 -39.793,-0.452c-3.683,-3.682 1.832,-69.014 -3.844,-77.503" style="fill:#e09600;fill-rule:nonzero;"/><path d="M145.803,203.231l28.189,-6.428c0,0 -0.007,-0.472 -0.043,-2.366l-28.068,4.954c-0.031,2.511 -0.059,2.629 -0.078,3.84" style="fill:#efa706;fill-rule:nonzero;"/><path d="M145.784,166.065c0.359,6.39 0.216,23.576 0.098,33.326l28.068,-4.954c-0.161,-8.583 -0.662,-33.362 -1.151,-37.438c-0.058,-0.477 -0.187,-0.945 -0.347,-1.406c-7.715,0.859 -24.295,2.837 -29.783,4.526c1.732,1.521 2.975,3.465 3.115,5.946" style="fill:#f8bb12;fill-rule:nonzero;"/><path d="M178.67,200.784c-0.1,-1.792 -4.677,-3.981 -4.677,-3.981l-28.189,6.428c-0.012,0.806 -0.02,3.167 -0.02,3.167l2.796,2.283c-0,0 1.014,22.025 0.002,25.477c8.262,-0.067 18.045,-0.679 24.282,-1.133c3.542,-0.258 6.267,-3.221 6.218,-6.772c-0.122,-8.886 -0.342,-24.204 -0.412,-25.469" style="fill:#f8bb12;fill-rule:nonzero;"/><path d="M172.452,155.593c-1.039,-2.998 -3.287,-5.777 -4.591,-7.222c-0.603,-0.669 -1.469,-1.026 -2.368,-0.966c-1.996,0.133 -6.292,0.51 -13.726,1.563c-10.965,1.552 -21.92,6.058 -21.92,6.058c-0,-0 8.178,1.015 12.822,5.093c5.488,-1.689 22.068,-3.667 29.783,-4.526" style="fill:#efa706;fill-rule:nonzero;"/><path d="M141.639,160.484c0.273,-0.12 0.629,-0.242 1.029,-0.365c-4.643,-4.078 -12.822,-5.093 -12.822,-5.093c0.818,1.224 1.403,3.637 1.817,6.872" style="fill:#e09600;fill-rule:nonzero;"/><path d="M162.026,168.546l-0.51,-2.646l0.818,0.035l0.387,2.443l-0.695,0.168Zm-2.161,0.359l-0.426,-2.469l0.767,-0.285l0.329,2.675l-0.67,0.079Zm0.457,-6.324l-4.049,5.528l6.013,3.862l3.218,-5.22l-5.182,-4.17Z" style="fill:#e09600;fill-rule:nonzero;"/><path d="M151.149,208.425l24.605,-6.662l0,2.359l-24.605,6.107l0,-1.804Z" style="fill:#e09600;fill-rule:nonzero;"/><path d="M169.692,158.267c0,-0 1.061,2.475 0.825,8.838c-0.236,6.363 -0.395,23.803 -0.395,23.803l1.456,-1.65l0,-26.513c0,-1.65 -1.256,-5.005 -1.256,-5.005l-0.63,0.527Z" style="fill:#e09600;fill-rule:nonzero;"/><path d="M90.938,236.137c-0,-0 24.919,-17.604 26.062,-24.233c1.144,-6.63 9.644,-47.095 9.644,-47.095c-0,-0 -1.518,-14.271 -11.755,-13.825c-0,-0 -4.272,2.545 -6.098,10.319c-1.827,7.773 -9.732,43.744 -9.732,43.744c-0,-0 -19.238,17.129 -18.974,18.71c0.264,1.581 10.853,12.38 10.853,12.38" style="fill:#fff;fill-rule:nonzero;"/><path d="M111.264,364.913l18.074,-0.59c0,0 0.914,15.817 0,19.03c-0.742,2.609 -36.652,1.66 -36.652,1.66l-0.003,-2.154c-0.002,-1.995 1.129,-3.812 2.923,-4.686c3.441,-1.676 9.586,-4.427 16.645,-6.483l-0.987,-6.777Z" style="fill:#4f4975;fill-rule:nonzero;"/><path d="M92.684,383.373l0.002,1.64c0,0 35.91,0.949 36.652,-1.66c0.132,-0.463 0.225,-1.196 0.289,-2.098c-12.037,2.777 -24.746,0.996 -36.943,2.118" style="fill:#6968a0;fill-rule:nonzero;"/><path d="M111.264,364.913l0.987,6.777l0.737,-6.834l-1.724,0.057Z" style="fill:#6968a0;fill-rule:nonzero;"/><path d="M126.183,374.254c0,1.989 -2.022,4.1 -4.012,4.1c-1.988,0 -3.601,-1.614 -3.601,-3.602c0,-1.989 1.817,-4.129 3.806,-4.129c1.99,0 3.807,1.642 3.807,3.631" style="fill:#fff;fill-rule:nonzero;"/><path d="M148.501,364.772l16.078,-0.178c-0,-0 -0.054,15.835 -0.89,19.027c-0.68,2.589 -29.91,-0.632 -29.91,-0.632l0.061,-2.153c0.056,-1.994 1.248,-3.297 2.733,-4.128c2.848,-1.594 6.493,-3.129 12.297,-5.017l-0.369,-6.919Z" style="fill:#4f4975;fill-rule:nonzero;"/><path d="M133.861,380.587c-0.006,0.083 -0.02,0.165 -0.021,0.249l-0.061,2.152c0,0 29.229,3.222 29.909,0.632c0.11,-0.416 0.198,-1.05 0.273,-1.833c-7.534,0.959 -25.038,-1.013 -30.1,-1.2" style="fill:#6968a0;fill-rule:nonzero;"/><path d="M160.43,374.61c-0.058,1.988 -1.453,3.786 -2.939,3.743c-1.488,-0.044 -3.986,-2.292 -3.928,-4.28c0.058,-1.988 2.4,-3.671 3.888,-3.628c1.486,0.044 3.038,2.177 2.979,4.165" style="fill:#fff;fill-rule:nonzero;"/></g></g></svg>